<svg width="24" height="24" viewBox="0 0 24 24" fill="none"
    xmlns="http://www.w3.org/2000/svg">
    <g filter="url(#filter0_b)">
        <path fill-rule="evenodd" clip-rule="evenodd" d="M12 24C18.6274 24 24 18.6274 24 12C24 5.37258 18.6274 0 12 0C5.37258 0 0 5.37258 0 12C0 18.6274 5.37258 24 12 24Z" fill="#FFFFFF"/>
    </g>
    <path fill-rule="evenodd" clip-rule="evenodd" d="M16.5004 7.70047C16.1224 7.32249 15.5095 7.32254 15.1315 7.70059L11.9387 10.8934L8.80706 7.76168C8.42907 7.3837 7.81619 7.38375 7.43815 7.7618C7.0601 8.13984 7.06005 8.75273 7.43803 9.13071L10.5697 12.2624L7.37694 15.4551C6.99889 15.8332 6.99884 16.4461 7.37683 16.8241C7.75481 17.202 8.36769 17.202 8.74574 16.8239L11.9385 13.6312L15.0702 16.7628C15.4481 17.1408 16.061 17.1408 16.4391 16.7627C16.8171 16.3847 16.8172 15.7718 16.4392 15.3938L13.3075 12.2622L16.5003 9.06939C16.8783 8.69134 16.8784 8.07846 16.5004 7.70047Z" fill="#283555"/>
    <defs>
        <filter id="filter0_b" x="-54.3656" y="-54.3656" width="132.731" height="132.731" filterUnits="userSpaceOnUse" color-interpolation-filters="sRGB">
            <feFlood flood-opacity="0" result="BackgroundImageFix"/>
            <feGaussianBlur in="BackgroundImage" stdDeviation="27.1828"/>
            <feComposite in2="SourceAlpha" operator="in" result="effect1_backgroundBlur"/>
            <feBlend mode="normal" in="SourceGraphic" in2="effect1_backgroundBlur" result="shape"/>
        </filter>
    </defs>
</svg>
