<svg width="24" height="24" viewBox="0 0 24 24" fill="none"
    xmlns="http://www.w3.org/2000/svg">
    <g clip-path="url(#clip0)">
        <path d="M7.78128 9.18811C8.16961 9.18811 8.48441 8.87331 8.48441 8.48499C8.48441 8.09666 8.16961 7.78186 7.78128 7.78186C7.39296 7.78186 7.07816 8.09666 7.07816 8.48499C7.07816 8.87331 7.39296 9.18811 7.78128 9.18811Z" fill="#FFFFFF"/>
        <path d="M16.9214 8.755C17.0702 8.39618 16.8999 7.98474 16.541 7.83601C16.1822 7.68729 15.7708 7.85759 15.6221 8.2164C15.4733 8.57521 15.6436 8.98666 16.0024 9.13538C16.3613 9.28411 16.7727 9.11381 16.9214 8.755Z" fill="#FFFFFF"/>
        <path d="M22.4669 4.24113C21.8313 3.14027 21.1521 2.49073 20.3905 2.25532C19.7264 2.05001 19.0339 2.16368 18.2733 2.60276C17.7074 2.92948 17.3167 3.3138 17.0901 3.76835C16.9433 3.72757 16.7952 3.69288 16.6463 3.66494C14.9742 3.35102 13.2835 3.77219 12.0001 4.79743C10.7237 3.77641 9.05009 3.35524 7.40048 3.66489C7.25151 3.69288 7.10338 3.72752 6.95662 3.7683C6.72998 3.3138 6.33923 2.92943 5.77336 2.60276C5.01244 2.1634 4.31354 2.0494 3.63681 2.25406C2.85695 2.49003 2.16879 3.13999 1.53307 4.24113C0.464234 6.09235 -0.895508 10.146 0.804685 11.1277C1.45432 11.5028 2.20863 11.2583 2.8555 10.8804C2.80047 11.4758 2.67269 11.971 2.46447 12.4104C1.82726 13.7548 1.48784 15.1951 1.45563 16.6913C1.45549 16.6988 1.45545 16.7064 1.45554 16.7139C1.47706 18.7355 3.07708 20.3704 5.09808 20.436C5.71209 20.4559 6.30328 20.1934 6.72403 19.765C8.14878 21.0959 10.0242 21.8443 11.9999 21.8443C13.9051 21.8443 15.8146 21.1467 17.2989 19.7835C17.684 20.1871 18.2239 20.4356 18.8094 20.4379H18.8251C20.9212 20.4379 22.5667 18.7511 22.5932 16.7192C22.5933 16.7108 22.5933 16.7025 22.5931 16.6941C22.5593 15.1956 22.2192 13.7543 21.5823 12.4104C21.3766 11.9763 21.2494 11.4878 21.1933 10.902C21.829 11.2693 22.5598 11.4945 23.1952 11.1276C24.8954 10.1461 23.5356 6.0924 22.4669 4.24113ZM1.51029 9.90542C1.44073 9.79751 1.29467 9.27495 1.55951 8.05715C1.7853 7.01878 2.24182 5.82601 2.75088 4.94425C3.187 4.18886 3.63414 3.72405 4.04401 3.60011C4.22551 3.54522 4.52935 3.50833 5.07029 3.82061C5.92762 4.31556 6.07439 4.89395 5.23346 6.35049C4.72693 7.22779 3.91426 8.21924 3.11256 8.93792C2.1739 9.77942 1.64084 9.91264 1.51029 9.90542ZM12 20.438C10.2281 20.438 8.55444 19.7027 7.35712 18.4096L7.64333 16.9784C8.05996 14.8955 9.88563 13.4072 12 13.4071C14.2807 13.407 16.0286 15.1041 16.4417 17.1696L16.6896 18.409C15.5005 19.6849 13.7722 20.438 12 20.438ZM11.2969 11.3095C11.4296 11.2935 11.6503 11.2953 11.8085 11.2965C11.9338 11.2975 12.0662 11.2975 12.1914 11.2965C12.3496 11.2953 12.5703 11.2935 12.703 11.3095C12.6966 11.6917 12.3837 12.0006 12 12.0006C11.6163 12.0006 11.3034 11.6917 11.2969 11.3095ZM18.815 19.0317C18.5019 19.0304 18.2281 18.8145 18.1464 18.5122C18.1457 18.5073 18.1481 18.5086 17.8206 16.8938C17.6678 16.1298 17.373 15.4139 16.9687 14.7778V12.7037C16.9687 12.3153 16.6539 12.0005 16.2656 12.0005C15.8773 12.0005 15.5624 12.3153 15.5624 12.7037V13.2228C15.049 12.8214 14.4732 12.5058 13.8563 12.2983C14.0176 12.0003 14.1093 11.6594 14.1093 11.2974C14.1093 10.8783 13.9837 10.541 13.7358 10.295C13.3188 9.88133 12.7404 9.88822 12.1804 9.89258C12.0623 9.89351 11.9376 9.89351 11.8195 9.89258C11.2598 9.88822 10.6811 9.88137 10.2641 10.295C10.0163 10.541 9.8906 10.8782 9.8906 11.2974C9.8906 11.6606 9.9829 12.0026 10.1452 12.3013C9.5502 12.5005 8.99506 12.7921 8.48436 13.1752V12.7037C8.48436 12.3154 8.16955 12.0006 7.78124 12.0006C7.39293 12.0006 7.07812 12.3154 7.07812 12.7037V14.6837C6.68756 15.2912 6.41039 15.9727 6.26442 16.7026C5.77359 19.1261 5.93569 18.3107 5.90447 18.4828C5.80734 18.7865 5.46291 19.0407 5.14364 19.0304C3.88112 18.9895 2.88091 17.971 2.86178 16.7097C2.89122 15.4171 3.18503 14.1733 3.7352 13.0126C4.25865 11.9082 4.32043 10.729 4.28757 9.76587C5.11604 8.97702 5.9197 7.97428 6.45126 7.05356C6.85401 6.35597 7.09049 5.73404 7.16512 5.17407C7.32796 5.12101 7.49329 5.07821 7.65997 5.04695C9.0949 4.77761 10.4936 5.21082 11.4977 6.23555C11.63 6.3705 11.811 6.44653 11.9999 6.44653C12.1889 6.44653 12.3699 6.3705 12.5021 6.23555C13.4961 5.22123 14.9484 4.7769 16.3868 5.04695C16.5535 5.07821 16.7188 5.12101 16.8816 5.17407C16.9562 5.73404 17.1927 6.35597 17.5954 7.05351C18.133 7.98454 18.9375 8.99563 19.7585 9.78359C19.727 10.7434 19.7912 11.9149 20.3115 13.0126C20.8614 14.1728 21.1559 15.4176 21.1869 16.7127C21.1642 17.9789 20.1332 19.0394 18.815 19.0317ZM22.4896 9.90547C22.3606 9.9117 21.8358 9.77703 20.9135 8.93872C20.1271 8.22398 19.3224 7.23225 18.8133 6.35049C18.0671 5.05796 18.0154 4.37547 18.9765 3.82061C19.196 3.69391 19.4371 3.55465 19.7164 3.55465C20.1274 3.55465 20.621 3.85647 21.249 4.94425C21.7581 5.82596 22.2146 7.01873 22.4404 8.0571C22.7053 9.27509 22.5592 9.79765 22.4896 9.90547Z" fill="#FFFFFF"/>
    </g>
    <defs>
        <clipPath id="clip0">
            <rect width="24" height="24" fill="white"/>
        </clipPath>
    </defs>
</svg>
