<svg width="24" height="24" viewBox="0 0 24 24" fill="none"
    xmlns="http://www.w3.org/2000/svg">
    <g clip-path="url(#clip0)">
        <path d="M21.4095 3.53198H16.9324L7.80778 12.7411C7.75148 12.1833 7.50309 11.6816 7.1302 11.3027C7.59834 10.8532 7.89066 10.2218 7.89066 9.52303C7.89066 8.16173 6.78319 7.05426 5.42189 7.05426C4.06059 7.05426 2.95312 8.16178 2.95312 9.52303C2.95312 10.2218 3.24544 10.8532 3.71358 11.3027C3.28734 11.7359 3.02377 12.3294 3.02377 12.9836V15.2872H2.59045C1.16208 15.2872 0 16.4492 0 17.8776C0 19.306 1.16208 20.468 2.59045 20.468H7.44502L19.0924 8.7128H21.4095C22.8379 8.7128 24 7.55072 24 6.12234C24 4.69401 22.8379 3.53198 21.4095 3.53198ZM5.42189 8.46056C6.00778 8.46056 6.48441 8.93719 6.48441 9.52308C6.48441 10.109 6.00778 10.5856 5.42189 10.5856C4.836 10.5856 4.35938 10.1089 4.35938 9.52303C4.35938 8.93714 4.836 8.46056 5.42189 8.46056ZM4.43002 12.9837C4.43002 12.4368 4.87495 11.9918 5.42189 11.9918C5.96883 11.9918 6.41377 12.4367 6.41377 12.9837V14.148L5.28506 15.2872H4.43002V12.9837ZM21.4095 7.30659H18.5061L6.8587 19.0618H2.59045C1.93748 19.0618 1.40625 18.5305 1.40625 17.8776C1.40625 17.2247 1.93748 16.6934 2.59045 16.6934H5.87138L17.5188 4.93819H21.4096C22.0626 4.93819 22.5938 5.46942 22.5938 6.12234C22.5938 6.77526 22.0625 7.30659 21.4095 7.30659Z" fill="#FFFFFF"/>
        <path d="M20.3751 15.0934V10.916H18.9688V15.0934L17.5137 13.6384L16.5194 14.6328L19.6719 17.7853L22.8244 14.6328L21.8301 13.6384L20.3751 15.0934Z" fill="#FFFFFF"/>
        <path d="M16.7656 19.0618H22.5781V20.468H16.7656V19.0618Z" fill="#FFFFFF"/>
    </g>
    <defs>
        <clipPath id="clip0">
            <rect width="24" height="24" fill="white"/>
        </clipPath>
    </defs>
</svg>
