<svg width="24" height="24" viewBox="0 0 24 24" fill="none"
    xmlns="http://www.w3.org/2000/svg">
    <path d="M22.6406 4.26562V2.85938H21.2344V4.26562H3.36502L1.95877 5.67188H0V12.3113L1.46095 13.6376L0.000140625 21.1406H7.06931L7.73737 16.9219H10.6875C12.626 16.9219 14.2031 15.3448 14.2031 13.4062V12.7031H19.5596L20.9658 9.89062H24V4.26562H22.6406ZM8.40984 8.48438L9.7282 5.67188H10.9876L9.66923 8.48438H8.40984ZM5.59734 8.48438L6.9157 5.67188H8.17509L6.85673 8.48438H5.59734ZM1.40625 7.07812H2.54123L3.94748 5.67188H5.36259L4.04423 8.48438H1.40625V7.07812ZM12.7969 13.4062C12.7969 14.5694 11.8506 15.5156 10.6875 15.5156H7.96003L8.11355 14.5442C8.23866 13.5687 9.02456 12.8166 9.98442 12.7152V14.1094H11.3907V12.7031H12.7969V13.4062H12.7969ZM18.6904 11.2969H10.2058C8.4458 11.2969 6.94927 12.6105 6.72014 14.3544L5.86819 19.7344H1.70658L2.99269 13.1288L1.40625 11.6887V9.89062H19.3935L18.6904 11.2969ZM22.5938 8.48438H11.2223L12.5407 5.67188H22.5938V8.48438Z" fill="#FFFFFF"/>
</svg>
