<svg width="24" height="24" viewBox="0 0 24 24" fill="none"
    xmlns="http://www.w3.org/2000/svg">
    <g clip-path="url(#clip0)">
        <path d="M11.2496 2.10978C11.2496 0.946718 10.3034 0.000488281 9.1403 0.000488281C7.97724 0.000488281 7.03101 0.946718 7.03101 2.10978C7.03101 3.27285 7.97724 4.21908 9.1403 4.21908C10.3034 4.21908 11.2496 3.27285 11.2496 2.10978ZM9.1403 2.81288C8.75261 2.81288 8.4372 2.49747 8.4372 2.10978C8.4372 1.7221 8.75261 1.40669 9.1403 1.40669C9.52799 1.40669 9.8434 1.7221 9.8434 2.10978C9.8434 2.49747 9.52799 2.81288 9.1403 2.81288Z" fill="#FFFFFF"/>
        <path d="M7.03096 16.8749C8.58172 16.8749 9.84336 15.6133 9.84336 14.0625C9.84336 12.5118 8.58172 11.2501 7.03096 11.2501C5.48021 11.2501 4.21857 12.5118 4.21857 14.0625C4.21857 15.6133 5.48021 16.8749 7.03096 16.8749ZM7.03096 12.6563C7.80634 12.6563 8.43716 13.2871 8.43716 14.0625C8.43716 14.8379 7.80634 15.4687 7.03096 15.4687C6.25558 15.4687 5.62476 14.8379 5.62476 14.0625C5.62476 13.2871 6.25558 12.6563 7.03096 12.6563Z" fill="#FFFFFF"/>
        <path d="M0.703099 19.6873H5.62479V23.2965C5.62479 23.6848 5.93959 23.9996 6.32789 23.9996H10.5465C10.9348 23.9996 11.2496 23.6848 11.2496 23.2965V19.6873H17.5775C17.9658 19.6873 18.2806 19.3725 18.2806 18.9842C18.2806 18.5959 17.9658 18.2811 17.5775 18.2811H15.4682V13.3594C15.4682 11.421 13.8911 9.84391 11.9527 9.84391H11.2496V6.32841C11.2496 5.16535 10.3034 4.21912 9.14029 4.21912C7.97722 4.21912 7.03099 5.16535 7.03099 6.32841V8.43771C6.70053 8.43771 6.37669 8.46659 6.0617 8.52157L4.89062 4.71546C4.79982 4.42044 4.52725 4.21912 4.21859 4.21912H2.1093C1.721 4.21912 1.4062 4.53392 1.4062 4.92222C1.4062 5.31051 1.721 5.62532 2.1093 5.62532H3.69928L4.71779 8.9356C2.76679 9.8193 1.4062 11.785 1.4062 14.0625C1.4062 15.7409 2.14534 17.2496 3.31492 18.2811H0.703099C0.314801 18.2811 0 18.5959 0 18.9842C0 19.3725 0.314801 19.6873 0.703099 19.6873ZM9.84338 22.5934H7.03099V19.6873H9.84338V22.5934ZM10.7471 18.2811C10.9249 18.1243 11.0927 17.9564 11.2496 17.7786V18.2811H10.7471ZM14.062 13.3594V18.2811H12.6558V14.0625C12.6558 13.0387 12.3807 12.0779 11.9007 11.2501H11.9527C13.1157 11.2501 14.062 12.1963 14.062 13.3594ZM8.43719 6.32841C8.43719 5.94073 8.7526 5.62532 9.14029 5.62532C9.52797 5.62532 9.84338 5.94073 9.84338 6.32841V9.19279C9.40803 8.94038 8.93597 8.74455 8.43719 8.61569V6.32841ZM2.8124 14.0625C2.8124 11.7364 4.70486 9.84391 7.03099 9.84391C9.35712 9.84391 11.2496 11.7364 11.2496 14.0625C11.2496 16.3886 9.35712 18.2811 7.03099 18.2811C4.70486 18.2811 2.8124 16.3886 2.8124 14.0625Z" fill="#FFFFFF"/>
        <path d="M19.0774 15.5624H21.8898C22.2781 15.5624 22.5929 15.2476 22.5929 14.8593V9.93761H23.296C23.8562 9.93761 24.1923 9.31148 23.881 8.84453L21.0686 4.62594C20.7909 4.20937 20.177 4.2083 19.8986 4.62594L17.0862 8.84453C16.7754 9.31073 17.11 9.93761 17.6712 9.93761H18.3743V14.8593C18.3743 15.2476 18.6891 15.5624 19.0774 15.5624ZM20.4836 6.28342L21.9822 8.53137H21.8898C21.5015 8.53137 21.1867 8.84617 21.1867 9.23447V14.1562H19.7805V9.23447C19.7805 8.84617 19.4657 8.53137 19.0774 8.53137H18.985L20.4836 6.28342Z" fill="#FFFFFF"/>
    </g>
    <defs>
        <clipPath id="clip0">
            <rect width="24" height="24" fill="white"/>
        </clipPath>
    </defs>
</svg>
