<svg width="24" height="24" viewBox="0 0 24 24" fill="none"
    xmlns="http://www.w3.org/2000/svg">
    <g clip-path="url(#clip0)">
        <path d="M23.2969 7.53128H8.18438V4.46875C8.18438 4.08044 7.86956 3.76562 7.48125 3.76562H0.703125C0.314812 3.76562 0 4.08044 0 4.46875V19.5312C0 19.9195 0.314812 20.2344 0.703125 20.2344H7.48125C7.86956 20.2344 8.18438 19.9195 8.18438 19.5312V11.95H23.2969C23.6852 11.95 24 11.6352 24 11.2469V8.23436C24 7.84605 23.6852 7.53128 23.2969 7.53128ZM6.77813 7.44062C6.42413 7.25833 6.0233 7.15469 5.59847 7.15469C4.17258 7.15469 3.01252 8.31475 3.01252 9.74064C3.01252 11.1665 4.17258 12.3266 5.59847 12.3266C6.0233 12.3266 6.42417 12.2229 6.77813 12.0407V18.8281H1.40625V5.17187H6.77813V7.44062ZM6.77813 9.74064C6.77813 10.3911 6.24895 10.9203 5.59847 10.9203C4.94798 10.9203 4.41877 10.3911 4.41877 9.74064C4.41877 9.09015 4.94798 8.56094 5.59847 8.56094C6.24895 8.56094 6.77813 9.09015 6.77813 9.74064ZM9.44939 10.5437H8.05509C8.13966 10.2868 8.18438 10.0157 8.18438 9.74064C8.18438 9.46548 8.13966 9.19454 8.05509 8.93753H11.0557L9.44939 10.5437ZM13.9681 10.5437H11.4381L13.0443 8.93748H15.5744L13.9681 10.5437ZM18.4869 10.5437H15.9569L17.5631 8.93748H20.0932L18.4869 10.5437ZM22.5938 10.5437H20.4756L22.0818 8.93748H22.5938V10.5437Z" fill="#FFFFFF"/>
    </g>
    <defs>
        <clipPath id="clip0">
            <rect width="24" height="24" fill="white"/>
        </clipPath>
    </defs>
</svg>
