<svg width="24" height="24" viewBox="0 0 24 24" fill="none"
    xmlns="http://www.w3.org/2000/svg">
    <path d="M19.5003 10.1866C18.9809 10.1866 18.4844 10.2796 18.0194 10.4424L16.5003 7.68198V6.56222H18.1717C18.4135 6.56222 18.6097 6.75834 18.6097 6.99947C18.6097 7.24135 18.4135 7.43748 18.1717 7.43748C17.7577 7.43748 17.4216 7.77311 17.4216 8.18749C17.4216 8.6015 17.7577 8.9375 18.1717 8.9375C19.2404 8.9375 20.1097 8.06824 20.1097 6.99947C20.1097 6.05446 19.4287 5.26807 18.532 5.09894C18.4615 5.07682 18.3892 5.06219 18.3123 5.06219H15.7502C15.3359 5.06219 15.0002 5.3982 15.0002 5.8122V7.12473H9.42952L9.06464 6.31246H10.2497C10.664 6.31246 10.9997 5.97646 10.9997 5.56245C10.9997 5.14807 10.664 4.81244 10.2497 4.81244H7.89125C7.8905 4.81244 7.889 4.81244 7.88825 4.81244H5.56209C5.14808 4.81244 4.81208 5.14807 4.81208 5.56245C4.81208 5.97646 5.14808 6.31246 5.56209 6.31246H7.42024L7.84137 7.25073C7.74012 7.31673 7.65312 7.40373 7.59312 7.51286L5.98022 10.4428C5.51596 10.28 5.01908 10.187 4.50007 10.187C2.01866 10.187 0 12.2057 0 14.6871C0 17.1685 2.01866 19.1872 4.50007 19.1872C6.72536 19.1872 8.57376 17.5619 8.93189 15.4371H11.9979C11.9987 15.4371 11.9994 15.4379 12.0002 15.4379C12.0324 15.4379 12.0654 15.4319 12.0977 15.4277C12.1161 15.4255 12.1352 15.4255 12.1524 15.4217C12.1611 15.4195 12.1701 15.4157 12.1787 15.4139C12.1933 15.4101 12.2072 15.4045 12.2226 15.4C12.2481 15.3921 12.2747 15.3854 12.2994 15.3745C12.3017 15.373 12.3047 15.373 12.3069 15.3722C12.3223 15.3647 12.3347 15.3554 12.3493 15.3475C12.3632 15.34 12.3778 15.3329 12.3917 15.3246C12.4033 15.3171 12.4157 15.3107 12.4277 15.3025C12.4483 15.2879 12.4667 15.271 12.4847 15.2549C12.5001 15.2417 12.5169 15.2309 12.5316 15.2159C12.5338 15.2136 12.5361 15.2099 12.5391 15.2072C12.5567 15.1888 12.5713 15.169 12.5867 15.1495C12.6006 15.1311 12.6159 15.1142 12.6283 15.0951C12.6351 15.0835 12.6414 15.0722 12.6482 15.0606C12.6504 15.0561 12.6542 15.0531 12.6568 15.049L15.7499 9.42989L16.7058 11.1665C15.6677 11.9912 14.9999 13.2621 14.9999 14.6875C14.9999 17.1689 17.0185 19.1875 19.4999 19.1875C21.9813 19.1875 24 17.1689 24 14.6875C24 12.2061 21.9817 10.1866 19.5003 10.1866ZM14.4812 8.62437L12.0684 13.0074L10.1027 8.62437H14.4812ZM8.56363 8.8595L10.8414 13.9367H8.93189C8.74364 12.8196 8.14513 11.8427 7.29424 11.1658L8.56363 8.8595ZM7.40149 13.9367H5.76872L6.55548 12.5076C6.96048 12.8901 7.25786 13.3821 7.40149 13.9367ZM4.50007 17.6868C2.84554 17.6868 1.50002 16.3412 1.50002 14.6867C1.50002 13.0329 2.84554 11.6867 4.50007 11.6867C4.75657 11.6867 5.00408 11.7227 5.24221 11.7834L3.84344 14.3248C3.83744 14.3357 3.83481 14.3477 3.82881 14.3586C3.81718 14.3822 3.80668 14.4062 3.79806 14.4317C3.78943 14.4546 3.78193 14.4778 3.77593 14.5015C3.76993 14.5243 3.76581 14.5468 3.76206 14.5712C3.75756 14.5982 3.75456 14.6248 3.75418 14.6518C3.75343 14.6635 3.75043 14.6755 3.75043 14.6871C3.75043 14.698 3.75268 14.7085 3.75343 14.7186C3.75493 14.7456 3.75793 14.7722 3.76131 14.7985C3.76506 14.8221 3.76881 14.8446 3.77443 14.8675C3.78043 14.8911 3.78756 14.9136 3.79581 14.9365C3.80368 14.9601 3.81268 14.9826 3.82281 15.0047C3.83294 15.0268 3.84494 15.0471 3.85731 15.0685C3.86894 15.0891 3.88131 15.1086 3.89556 15.1277C3.91019 15.1476 3.92631 15.1667 3.94244 15.1847C3.95856 15.2024 3.97469 15.22 3.99231 15.2361C4.00994 15.2522 4.02831 15.2669 4.04706 15.2815C4.06844 15.2976 4.08944 15.313 4.11231 15.3261C4.12094 15.3321 4.12919 15.3392 4.13857 15.3445C4.14944 15.3505 4.16069 15.3531 4.17157 15.3591C4.19557 15.3707 4.21994 15.3812 4.24469 15.3899C4.26832 15.3985 4.29157 15.406 4.31557 15.412C4.33769 15.418 4.35944 15.4221 4.38232 15.4259C4.41082 15.4304 4.43857 15.4334 4.46744 15.4345C4.47832 15.4345 4.48882 15.4375 4.50045 15.4375H7.40149C7.06661 16.7286 5.89472 17.6868 4.50007 17.6868ZM19.5003 17.6868C17.8458 17.6868 16.5003 16.3412 16.5003 14.6867C16.5003 13.8283 16.8644 13.0547 17.4445 12.5076L18.8433 15.0482C18.9794 15.2965 19.2359 15.4364 19.5011 15.4364C19.6233 15.4364 19.7471 15.4071 19.8622 15.3434C20.2248 15.1442 20.3572 14.6878 20.1573 14.3245L18.7585 11.783C18.9959 11.7223 19.2442 11.6863 19.5007 11.6863C21.1545 11.6863 22.5007 13.0326 22.5007 14.6863C22.5004 16.3412 21.1541 17.6868 19.5003 17.6868Z" fill="#FFFFFF"/>
</svg>
