<svg width="24" height="24" viewBox="0 0 24 24" fill="none"
    xmlns="http://www.w3.org/2000/svg">
    <g clip-path="url(#clip0)">
        <path d="M23.25 3H0.750014C0.335442 3 0 3.33544 0 3.74997V14.25C0 14.6646 0.335442 15 0.750014 15H4.49999V19.5H3.00001V21H7.50001V19.5H6.00002V15H18V19.5H16.5V21H21V19.5H19.5V15H23.25C23.6646 15 24 14.6646 24 14.25V3.74997C24 3.33544 23.6646 3 23.25 3ZM22.5 8.68943L17.6895 13.5H12.3105L21.3105 4.49998H22.5C22.5 4.49998 22.5 8.68943 22.5 8.68943ZM10.1895 13.5H4.81054L13.8105 4.49998H19.1895L10.1895 13.5ZM4.18945 4.49998L1.49998 7.18945V4.49998H4.18945ZM1.49998 9.31052L6.31052 4.49998H11.6894L2.68947 13.5H1.49998V9.31052ZM19.8105 13.5L22.5 10.8105V13.5H19.8105Z" fill="#FFFFFF"/>
    </g>
    <defs>
        <clipPath id="clip0">
            <rect width="24" height="24" fill="white"/>
        </clipPath>
    </defs>
</svg>
