<svg width="24" height="24" viewBox="0 0 24 24" fill="none"
    xmlns="http://www.w3.org/2000/svg">
    <g clip-path="url(#clip0)">
        <path d="M22.0728 23.2102L20.2563 8.5852C20.2259 8.34028 20.0694 8.12925 19.8438 8.02917C19.6182 7.92909 19.3567 7.9545 19.1547 8.09634L17.3582 9.35709L17.8384 7.4362C17.8743 7.29281 17.864 7.14178 17.8091 7.00453L17.1077 5.25122L19.2393 4.13906C19.4997 4.00322 19.6482 3.71991 19.6117 3.42848L19.2602 0.615984C19.2162 0.264047 18.917 0 18.5625 0H5.43748C5.08291 0 4.78376 0.264047 4.73979 0.615938L4.44682 2.95969C4.41766 3.1928 4.50687 3.42506 4.68452 3.57872L5.75337 4.50309L4.71996 4.69992C4.42029 4.75702 4.19163 5.00077 4.15385 5.30344L2.86479 15.6159C2.82316 15.9485 3.02215 16.2642 3.34015 16.3702L5.22719 16.9992L4.50583 17.961L2.77929 18.8243C2.56835 18.9298 2.42435 19.1339 2.39576 19.3681L1.92701 23.2118C1.90263 23.4117 1.96507 23.6123 2.09852 23.7631C2.23202 23.9137 2.42365 24 2.62498 24H21.375C21.5766 24 21.7684 23.9135 21.9019 23.7624C22.0354 23.6114 22.0976 23.4103 22.0728 23.2102ZM12.7031 22.5938V21.3281C12.7031 20.9398 12.3883 20.625 12 20.625C11.6117 20.625 11.2969 20.9398 11.2969 21.3281V22.5938H3.41904L3.74594 19.9131L5.28316 19.1445C5.3808 19.0957 5.46574 19.0248 5.53123 18.9375L6.93748 17.0625C7.07308 16.8817 7.11354 16.6467 7.04608 16.431C6.97868 16.2152 6.81171 16.0451 6.5973 15.9735L4.33165 15.2183L5.48576 5.98556L7.44401 5.61258C7.70885 5.56214 7.92157 5.36466 7.99151 5.10427C8.06144 4.84383 7.97637 4.56637 7.77241 4.39003L5.88879 2.76098L6.05819 1.40625H11.2969V2.57812C11.2969 2.96644 11.6117 3.28125 12 3.28125C12.3883 3.28125 12.7031 2.96644 12.7031 2.57812V1.40625H17.9418L18.1557 3.11817L15.8935 4.29848C15.5734 4.46545 15.4317 4.84781 15.5659 5.18302L16.4189 7.31564L15.5366 10.8451C15.4654 11.1299 15.5786 11.4289 15.8206 11.5951C16.0626 11.7615 16.3824 11.7598 16.6226 11.5912L19.005 9.91931L20.5791 22.5938H12.7031Z" fill="#FFFFFF"/>
        <path d="M12 15.4688C11.6117 15.4688 11.2969 15.7836 11.2969 16.1719V18.0469C11.2969 18.4352 11.6117 18.75 12 18.75C12.3883 18.75 12.7031 18.4352 12.7031 18.0469V16.1719C12.7031 15.7836 12.3883 15.4688 12 15.4688Z" fill="#FFFFFF"/>
        <path d="M12 10.3125C11.6117 10.3125 11.2969 10.6273 11.2969 11.0156V12.8906C11.2969 13.2789 11.6117 13.5938 12 13.5938C12.3883 13.5938 12.7031 13.2789 12.7031 12.8906V11.0156C12.7031 10.6273 12.3883 10.3125 12 10.3125Z" fill="#FFFFFF"/>
        <path d="M12 5.15625C11.6117 5.15625 11.2969 5.47106 11.2969 5.85938V7.73438C11.2969 8.12269 11.6117 8.4375 12 8.4375C12.3883 8.4375 12.7031 8.12269 12.7031 7.73438V5.85938C12.7031 5.47106 12.3883 5.15625 12 5.15625Z" fill="#FFFFFF"/>
    </g>
    <defs>
        <clipPath id="clip0">
            <rect width="24" height="24" fill="white"/>
        </clipPath>
    </defs>
</svg>
