<svg width="24" height="24" viewBox="0 0 24 24" fill="none"
    xmlns="http://www.w3.org/2000/svg">
    <path fill-rule="evenodd" clip-rule="evenodd" d="M8.82929 20C8.41746 21.1652 7.30622 22 6 22C4.34315 22 3 20.6569 3 19C3 17.3431 4.34315 16 6 16C7.30622 16 8.41746 16.8348 8.82929 18H17.5C18.8807 18 20 16.8807 20 15.5C20 14.1193 18.8807 13 17.5 13H6.5C4.01472 13 2 10.9853 2 8.5C2 6.01472 4.01472 4 6.5 4H9.58579L8.29289 2.70711L9.70711 1.29289L13.4142 5L9.70711 8.70711L8.29289 7.29289L9.58579 6H6.5C5.11929 6 4 7.11929 4 8.5C4 9.88071 5.11929 11 6.5 11H17.5C19.9853 11 22 13.0147 22 15.5C22 17.9853 19.9853 20 17.5 20H8.82929ZM6 18C5.44772 18 5 18.4477 5 19C5 19.5523 5.44772 20 6 20C6.55228 20 7 19.5523 7 19C7 18.4477 6.55228 18 6 18ZM18 2C19.6569 2 21 3.34314 21 5C21 6.65685 19.6569 8 18 8C16.3431 8 15 6.65685 15 5C15 3.34314 16.3431 2 18 2ZM18 4C17.4477 4 17 4.44771 17 5C17 5.55228 17.4477 6 18 6C18.5523 6 19 5.55228 19 5C19 4.44771 18.5523 4 18 4Z" fill="#FFFFFF"/>
</svg>
