<svg width="24" height="24" viewBox="0 0 24 24" fill="none"
    xmlns="http://www.w3.org/2000/svg">
    <g clip-path="url(#clip0)">
        <path d="M23.7844 20.7983L13.2625 2.77472C12.979 2.28919 12.4751 2 11.9134 2C11.9108 2 11.9081 2 11.9055 2C11.3405 2.00277 10.8361 2.29725 10.556 2.78784L0.20811 20.9117C-0.0720333 21.4023 -0.0691742 21.9865 0.215656 22.4744C0.499174 22.96 1.00298 23.2491 1.56472 23.2491H1.57264L22.4424 23.1487C23.0073 23.146 23.5118 22.8515 23.7919 22.3609C24.072 21.8703 24.0692 21.2862 23.7844 20.7983ZM22.5708 21.6637C22.5503 21.6995 22.5103 21.7423 22.4356 21.7427L1.56585 21.8431C1.56552 21.8431 1.56519 21.8431 1.56486 21.8431C1.49081 21.8431 1.45059 21.8009 1.42992 21.7655C1.40911 21.7299 1.3921 21.6738 1.42913 21.6089L11.7771 3.48504C11.8141 3.42017 11.8711 3.40629 11.9123 3.40611H11.9132C11.9544 3.40611 12.0109 3.4197 12.0483 3.48368L22.5701 21.5072C22.6077 21.5717 22.5913 21.6279 22.5708 21.6637Z" fill="#FFFFFF"/>
        <path d="M15.4071 12.6912H14.001V14.077H12.7031V12.6912H11.2969V14.077H9.99896V12.6912H8.59286V14.077H7.31775V15.4831H8.59286V17.3718H7.31775V18.7779H8.59286V20.1637H9.99896V18.7779H11.2969V20.1637H12.7031V18.7779H14.001V20.1637H15.4071V18.7779H16.6822V17.3718H15.4071V15.4831H16.6822V14.077H15.4071V12.6912ZM9.99896 17.3718V15.4831H11.2969V17.3718H9.99896ZM14.001 17.3718H12.7031V15.4831H14.001V17.3718Z" fill="#FFFFFF"/>
    </g>
    <defs>
        <clipPath id="clip0">
            <rect width="24" height="24" fill="white"/>
        </clipPath>
    </defs>
</svg>
