<svg width="24" height="24" viewBox="0 0 24 24" fill="none"
    xmlns="http://www.w3.org/2000/svg">
    <g clip-path="url(#clip0)">
        <path d="M12.0005 8.02195C13.3984 8.02195 14.5358 6.88457 14.5358 5.48662C14.5358 4.08867 13.3984 2.95129 12.0005 2.95129C10.6025 2.95129 9.46518 4.08867 9.46518 5.48662C9.46518 6.88457 10.6026 8.02195 12.0005 8.02195ZM12.0005 4.35754C12.623 4.35754 13.1296 4.86407 13.1296 5.48662C13.1296 6.10917 12.623 6.6157 12.0005 6.6157C11.3779 6.6157 10.8714 6.10917 10.8714 5.48662C10.8714 4.86407 11.378 4.35754 12.0005 4.35754Z" fill="#FFFFFF"/>
        <path d="M12.0005 14.5372C13.3984 14.5372 14.5358 13.3998 14.5358 12.0019C14.5358 10.6039 13.3984 9.46655 12.0005 9.46655C10.6025 9.46655 9.46518 10.6039 9.46518 12.0019C9.46518 13.3998 10.6026 14.5372 12.0005 14.5372ZM12.0005 10.8728C12.623 10.8728 13.1296 11.3793 13.1296 12.0019C13.1296 12.6244 12.623 13.131 12.0005 13.131C11.3779 13.131 10.8714 12.6244 10.8714 12.0019C10.8714 11.3793 11.378 10.8728 12.0005 10.8728Z" fill="#FFFFFF"/>
        <path d="M12.0005 21.0487C13.3984 21.0487 14.5358 19.9113 14.5358 18.5134C14.5358 17.1154 13.3984 15.978 12.0005 15.978C10.6025 15.978 9.46518 17.1154 9.46518 18.5134C9.46518 19.9113 10.6026 21.0487 12.0005 21.0487ZM12.0005 17.3843C12.623 17.3843 13.1296 17.8908 13.1296 18.5134C13.1296 19.1359 12.623 19.6424 12.0005 19.6424C11.3779 19.6424 10.8714 19.1359 10.8714 18.5134C10.8714 17.8908 11.378 17.3843 12.0005 17.3843Z" fill="#FFFFFF"/>
        <path d="M19.8691 14.5331C20.5455 14.5331 21.1439 14.127 21.3938 13.4984L22.1017 11.7172C22.3027 11.2113 22.2403 10.6403 21.9346 10.19C21.629 9.73955 21.1215 9.47058 20.5771 9.47058H18.7219V8.01788H19.8692C20.5455 8.01788 21.1439 7.61175 21.3938 6.9832L22.1018 5.20195C22.3028 4.69608 22.2403 4.12514 21.9347 3.67477C21.629 3.22434 21.1215 2.95537 20.5771 2.95537H18.7219V1.17188C18.7219 0.525703 18.1962 0 17.55 0H6.45122C5.80505 0 5.27934 0.525703 5.27934 1.17188V2.95537H3.42413C2.26556 2.95537 1.47188 4.12594 1.89952 5.20195L2.60747 6.9832C2.85727 7.61175 3.45572 8.01788 4.13208 8.01788H5.27934V9.47058H3.42413C2.26556 9.47058 1.47188 10.6411 1.89952 11.7172L2.60747 13.4984C2.85727 14.127 3.45572 14.5331 4.13208 14.5331H5.27934V15.9858H3.42413C2.26556 15.9858 1.47188 17.1563 1.89952 18.2324L2.60747 20.0136C2.85727 20.6422 3.45572 21.0483 4.13208 21.0483H5.27934V22.8281C5.27934 23.4743 5.80505 24 6.45122 24H17.55C18.1961 24 18.7218 23.4743 18.7218 22.8281V21.0483H19.8691C20.5455 21.0483 21.1439 20.6422 21.3938 20.0136L22.1017 18.2324C22.3027 17.7265 22.2403 17.1555 21.9346 16.7052C21.629 16.2548 21.1215 15.9858 20.5771 15.9858H18.7219V14.5331H19.8691ZM18.7218 4.36162H20.577C20.6851 4.36162 20.7449 4.42603 20.771 4.46438C20.797 4.50277 20.8348 4.58217 20.7949 4.68253L20.0869 6.46373C20.0512 6.55355 19.9658 6.61158 19.8691 6.61158H18.7218V4.36162ZM18.7218 10.8768H20.577C20.6851 10.8768 20.7449 10.9412 20.771 10.9796C20.797 11.018 20.8348 11.0974 20.7949 11.1977L20.0869 12.9789C20.0512 13.0688 19.9658 13.1268 19.8691 13.1268H18.7218V10.8768ZM5.27934 19.642H4.13208C4.03542 19.642 3.94997 19.584 3.9143 19.4942L3.20634 17.713C3.14503 17.5589 3.25805 17.392 3.42413 17.392H5.27934V19.642ZM5.27934 13.1268H4.13208C4.03542 13.1268 3.94997 13.0688 3.9143 12.979L3.20634 11.1978C3.14503 11.0437 3.25805 10.8768 3.42413 10.8768H5.27934V13.1268ZM5.27934 6.61163H4.13208C4.03542 6.61163 3.94997 6.55364 3.9143 6.46383L3.20634 4.68258C3.14503 4.52845 3.25805 4.36162 3.42413 4.36162H5.27934V6.61163ZM17.3156 22.5938H6.6856V1.40625H17.3156V22.5938ZM20.577 17.392C20.6851 17.392 20.7449 17.4564 20.771 17.4948C20.797 17.5332 20.8348 17.6126 20.7949 17.7129L20.0869 19.4941C20.0512 19.584 19.9658 19.642 19.8691 19.642H18.7218V17.392H20.577V17.392Z" fill="#FFFFFF"/>
    </g>
    <defs>
        <clipPath id="clip0">
            <rect width="24" height="24" fill="white"/>
        </clipPath>
    </defs>
</svg>
