<svg width="24" height="24" viewBox="0 0 24 24" fill="none"
    xmlns="http://www.w3.org/2000/svg">
    <g clip-path="url(#clip0)">
        <path d="M23.0756 14.8482L14.0625 17.836V15.5156C14.0625 13.5771 12.4854 12 10.5469 12H9.84375V8.48438C9.84375 7.32127 8.89748 6.375 7.73438 6.375C6.57127 6.375 5.625 7.32127 5.625 8.48438V10.5938C5.29453 10.5938 4.97067 10.6227 4.65567 10.6776L3.48455 6.87136C3.39375 6.57633 3.12117 6.375 2.8125 6.375H0.703125C0.314812 6.375 0 6.68981 0 7.07812C0 7.46644 0.314812 7.78125 0.703125 7.78125H2.29317L3.31172 11.0917C1.36064 11.9754 0 13.9412 0 16.2188C0 19.3204 2.52338 21.8438 5.625 21.8438H23.2969C23.6852 21.8438 24 21.5289 24 21.1406V15.5156C24 15.0369 23.5306 14.6974 23.0756 14.8482ZM12.6562 15.5156V18.3022L10.5042 19.0155C10.9785 18.1913 11.25 17.2361 11.25 16.2188C11.25 15.1949 10.9749 14.2341 10.4949 13.4062H10.5469C11.71 13.4062 12.6562 14.3525 12.6562 15.5156ZM7.03125 8.48438C7.03125 8.09667 7.34667 7.78125 7.73438 7.78125C8.12208 7.78125 8.4375 8.09667 8.4375 8.48438V11.3489C8.00212 11.0964 7.53005 10.9006 7.03125 10.7717V8.48438ZM1.40625 16.2188C1.40625 13.8925 3.29878 12 5.625 12C7.95122 12 9.84375 13.8925 9.84375 16.2188C9.84375 18.5566 7.93819 20.4375 5.625 20.4375C3.29878 20.4375 1.40625 18.545 1.40625 16.2188ZM22.5938 20.4375H10.6838L22.5938 16.4895V20.4375Z" fill="#FFFFFF"/>
        <path d="M9.84375 4.26562C9.84375 3.10252 8.89748 2.15625 7.73438 2.15625C6.57127 2.15625 5.625 3.10252 5.625 4.26562C5.625 5.42873 6.57127 6.375 7.73438 6.375C8.89748 6.375 9.84375 5.42873 9.84375 4.26562ZM7.73438 4.96875C7.34667 4.96875 7.03125 4.65333 7.03125 4.26562C7.03125 3.87792 7.34667 3.5625 7.73438 3.5625C8.12208 3.5625 8.4375 3.87792 8.4375 4.26562C8.4375 4.65333 8.12208 4.96875 7.73438 4.96875Z" fill="#FFFFFF"/>
        <path d="M8.4375 16.2188C8.4375 14.6679 7.17581 13.4062 5.625 13.4062C4.07419 13.4062 2.8125 14.6679 2.8125 16.2188C2.8125 17.7696 4.07419 19.0312 5.625 19.0312C7.17581 19.0312 8.4375 17.7696 8.4375 16.2188ZM4.21875 16.2188C4.21875 15.4433 4.84959 14.8125 5.625 14.8125C6.40041 14.8125 7.03125 15.4433 7.03125 16.2188C7.03125 16.9942 6.40041 17.625 5.625 17.625C4.84959 17.625 4.21875 16.9942 4.21875 16.2188Z" fill="#FFFFFF"/>
    </g>
    <defs>
        <clipPath id="clip0">
            <rect width="24" height="24" fill="white"/>
        </clipPath>
    </defs>
</svg>
