<svg width="24" height="24" viewBox="0 0 24 24" fill="none"
    xmlns="http://www.w3.org/2000/svg">
    <g clip-path="url(#clip0)">
        <path d="M23.9928 19.2742L22.1489 4.52435C22.0903 4.05524 21.6915 3.70312 21.2187 3.70312H2.78145C2.30867 3.70312 1.90987 4.05524 1.85109 4.52435L0.00739982 19.2742C-0.0623634 19.8334 0.37416 20.3278 0.937759 20.3278H23.0624C23.626 20.328 24.0627 19.8334 23.9928 19.2742ZM11.0626 5.57812V18.453H7.17561L8.25301 5.57812H11.0626ZM12.9376 5.57812H15.7471L16.8245 18.453H12.9376V5.57812ZM3.60908 5.57812H6.3716L5.29402 18.453H1.99977L3.60908 5.57812ZM18.7059 18.453L17.6286 5.57812H20.3911L22.0004 18.453H18.7059Z" fill="#FFFFFF"/>
    </g>
    <defs>
        <clipPath id="clip0">
            <rect width="24" height="24" fill="white"/>
        </clipPath>
    </defs>
</svg>
